# xmcd
#
# Track frame offsets: 
#        150
#        12682
#        21738
#        34841
#        46353
#        60211
#        72830
#        83413
#        91657
#        103137
#        115278
#        127825
#        140589
#        151528
#        161472
#        172706
#        184100
#        196353
#        207111
#        217868
#
# Disc length: 3048 seconds
#
# Revision: 2
# Processed by: cddbd v1.5.2PL0 Copyright (c) Steve Scherf et al.
# Submitted via: ExactAudioCopy v1.1
#
DISCID=fd0be614
DTITLE=Various Artist - Rhythm and Blues Goes Rock 'n' Roll - CD05
DYEAR=2002
DGENRE=Blues
TTITLE0=Floyd Dixon - Real Lovin' Mama (mono)
TTITLE1=Peppermint Harris - The Blues Pick On Me (mono)
TTITLE2=Freddie Mitchell - Pony Express (mono)
TTITLE3=Tiny Grimes - Hey Now (mono)
TTITLE4=The Rocking Highlanders - Ho Ho Ho (mono)
TTITLE5=Jimmy McCracklin - Just Won't Let Her Go (mono)
TTITLE6=Joe Turner - Jumpin' Tonight (mono)
TTITLE7=Luke Jones - Shuffin' Boogie (mono)
TTITLE8=Paul Bascomb - Mumbles Blues (mono)
TTITLE9=Floyd Dixon - Wine, Wine, Wine (mono)
TTITLE10=Joe Turner - Adam Bit The Apple (mono)
TTITLE11=Tiny Grimes - Drinking Beer (mono)
TTITLE12=Jimmy McCracklin - Gotta Cut Out (mono)
TTITLE13=Floyd Dixon - Ooh Little Girl (mono)
TTITLE14=Joe Turner - Blues Jumped The Rabbit (mono)
TTITLE15=Tiny Grimes - Hey Mr. J.B. (mono)
TTITLE16=Jimmy McCracklin - She Felt Too Good (mono)
TTITLE17=Charlie and Ray - Oh Gee Oh Wee (mono)
TTITLE18=Gene and Eunice - I Gotta Go Home (mono)
TTITLE19=Jimmy McCracklin - I Wanna Make Love To You (mono)
EXTD=
EXTT0=
EXTT1=
EXTT2=
EXTT3=
EXTT4=
EXTT5=
EXTT6=
EXTT7=
EXTT8=
EXTT9=
EXTT10=
EXTT11=
EXTT12=
EXTT13=
EXTT14=
EXTT15=
EXTT16=
EXTT17=
EXTT18=
EXTT19=
PLAYORDER=
